# xmcd
#
# Track frame offsets: 
#        150
#        13772
#        34915
#        46827
#        59900
#        71200
#        84415
#        97602
#        113767
#        133065
#        157877
#        170072
#        178785
#        200497
#
# Disc length: 2910 seconds
#
# Revision: 4
# Processed by: cddbd v1.5.2PL0 Copyright (c) Steve Scherf et al.
# Submitted via: ExactAudioCopyFreeDBPlugin 1.0
#
DISCID=c00b5c0e
DTITLE=CAETANO VELOSO - Caetano Canta
DYEAR=1994
DGENRE=MPB
TTITLE0=Sonhos
TTITLE1=Charles, Anjo 45
TTITLE2=Ouro De Tolo
TTITLE3=Super Homem (A Canção)
TTITLE4=Help
TTITLE5=Acontece
TTITLE6=Tu Me Acostumbraste
TTITLE7=Meia Lua Inteira
TTITLE8=Oceano
TTITLE9=Partido Alto
TTITLE10=Amanhã
TTITLE11=Todo Amor Que Houver Nessa Vida
TTITLE12=Debaixo Dos Caracóis Dos Seus Cabelos
TTITLE13=Nega Maluca - Billie Jean - Eleanor Rigby
EXTD=
EXTT0=
EXTT1=
EXTT2=
EXTT3=
EXTT4=
EXTT5=
EXTT6=
EXTT7=
EXTT8=
EXTT9=
EXTT10=
EXTT11=
EXTT12=
EXTT13=Billie Jean\nEleanor Rigby\n
PLAYORDER=
